<svg xmlns="http://www.w3.org/2000/svg" xmlns:xlink="http://www.w3.org/1999/xlink" width="1920" height="1080" viewBox="0 0 1920 1080">
  <defs>
    <linearGradient id="linear-gradient" y1="0.534" x2="1.228" y2="0.518" gradientUnits="objectBoundingBox">
      <stop offset="0" stop-color="#fff"/>
      <stop offset="1" stop-color="#efe2ff"/>
    </linearGradient>
    <clipPath id="clip-bg_2">
      <rect width="1920" height="1080"/>
    </clipPath>
  </defs>
  <g id="bg_2" data-name="bg – 2" clip-path="url(#clip-bg_2)">
    <rect width="1920" height="1080" fill="#fff"/>
    <g id="Group_6" data-name="Group 6">
      <rect id="Rectangle_2" data-name="Rectangle 2" width="1920" height="1080" fill="url(#linear-gradient)"/>
    </g>
    <g id="Group_7" data-name="Group 7" transform="translate(1147.719 221.324)">
      <circle id="Ellipse_5" data-name="Ellipse 5" cx="68.883" cy="68.883" r="68.883" transform="translate(325.44 42.03)" fill="#a0616a"/>
      <path id="Path_22" data-name="Path 22" d="M581.117,260.562S594.1,358.4,574.129,369.377s118.8,11.98,118.8,11.98S661.98,296.5,675.957,270.545Z" transform="translate(-238.207 -115.208)" fill="#a0616a"/>
      <path id="Path_23" data-name="Path 23" d="M788.014,386.565l-11.54,52.55-24.4,111.179-.731,6.089-8.421,70.488-5.6,46.827-3.756,31.455c-22.837,11.737-39.389,19.84-39.389,19.84s-1.424-7.138-3.719-16.271c-16.027,4.805-45.684,12.777-70.816,14.369,9.152,10.2,13.358,19.784,7.653,26.856-17.217,21.32-88.3-23.343-113.156-40a67.281,67.281,0,0,0-.656,12.046l-19.025-14.631,1.883-33.666,3.175-56.962L503.5,545.3a75,75,0,0,1-3.157-9.4c-5.826-20.72-12.9-62.1-18.322-96.791-4.365-27.924-7.644-51.52-8.337-56.541-.094-.656-.141-.993-.141-.993l105.315-46.536C586.347,352.4,621.3,357.62,621.3,357.62c28.954-2,51.651-17.264,51.651-17.264Z" transform="translate(-231.967 -119.921)" fill="#d0cde1"/>
      <path id="Path_24" data-name="Path 24" d="M709.079,727.859s-4.459,1.527-11.709,3.691c-16.027,4.805-45.684,12.777-70.816,14.369-21.638,1.386-39.923-1.948-43.267-16.065-1.433-6.07.6-11.063,5.03-15.165,13.227-12.262,47.773-16.655,75.172-18.163,7.737-.422,14.894-.618,20.851-.693,10.117-.131,16.749.075,16.749.075l.159.618Z" transform="translate(-238.882 -142.749)" fill="#a0616a"/>
      <path id="Path_25" data-name="Path 25" d="M574.2,151.144l-12.88-5.156s26.93-29.648,64.4-27.07l-10.538-11.6S640.939,97,664.356,124.075c12.31,14.23,26.553,30.957,35.431,49.8H713.58l-5.757,12.676,20.148,12.676-20.68-2.277a70.831,70.831,0,0,1,.561,21.025,27.2,27.2,0,0,1-9.961,17.8h0s-15.973-33.062-15.973-38.218v12.89s-12.879-11.6-12.879-19.336l-7.025,9.023-3.513-14.18-43.321,14.18,7.025-11.6-26.93,3.867,10.538-14.18s-30.442,16.758-31.613,30.937-10.081,27.615-10.081,27.615S540.246,170.48,574.2,151.144Z" transform="translate(-237.182 -105.389)" fill="#2f2e41"/>
      <path id="Path_26" data-name="Path 26" d="M876.374,631.635c-7.016,7.606-24.4,19.062-45.478,31.465-7.84,4.609-16.187,9.358-24.7,14.079-20.317,11.269-41.59,22.435-59.145,31.455-22.837,11.737-39.389,19.84-39.389,19.84s-1.424-7.138-3.719-16.271c-3.072-12.224-7.7-28.027-12.524-35.024-.169-.244-.337-.468-.506-.693-1.405-1.845-2.82-2.922-4.215-2.922l69.711-43.211,30.125-18.678-21.7-51.81-27.221-64.99,16.43-52.278,16.514-52.55H801.5s10.248,22.369,23.352,53.562c1.958,4.665,3.981,9.526,6.042,14.547C857.855,523.724,891.464,615.289,876.374,631.635Z" transform="translate(-245.455 -123.401)" fill="#d0cde1"/>
      <path id="Path_27" data-name="Path 27" d="M629.449,772.175c-17.217,21.32-88.3-23.343-113.156-40-5.414-3.625-8.637-5.92-8.637-5.92L530.4,695.926l7.2-9.6s6.445,3.419,15.971,8.983c.347.206.693.412,1.049.618,8.215,4.824,18.528,11.128,28.935,18.163,14.36,9.714,28.879,20.8,38.237,31.23C630.948,755.521,635.154,765.1,629.449,772.175Z" transform="translate(-234.125 -142.15)" fill="#a0616a"/>
      <path id="Path_28" data-name="Path 28" d="M545.573,676.29a44.75,44.75,0,0,0-7.587.618c-21.535,3.7-27.886,23.193-29.694,36.251a67.294,67.294,0,0,0-.656,12.046l-19.025-14.632-6.932-5.33C465,699.427,450.13,689.1,437.241,676.909a223.4,223.4,0,0,1-29.928-35.492A313,313,0,0,1,384.157,601.7a29.211,29.211,0,0,1-.4-24.776l23.559-52.5,34.434-76.736q.379-2.74.834-5.358c6.829-39.155,25.123-56.54,25.123-56.54h13.976l9.348,56.54,11.615,70.245-8.14,26.547-18.809,61.308,17.976,19.521Z" transform="translate(-226.123 -123.132)" fill="#d0cde1"/>
      <path id="Path_29" data-name="Path 29" d="M571.43,518.894l11.948,13.939c4.439-.846,9.074-1.841,13.849-2.958L593.8,518.894l8.391,9.789c50.58-12.44,113.275-36.627,113.275-36.627s-67.685,4.963-118.222-6.078c-22.36-4.885-45.366,6.2-54.542,27.167-5.333,12.188-4.5,22.746,14.42,22.746a124.951,124.951,0,0,0,19.065-1.793Z" transform="translate(-236.163 -129.4)" fill="#6c63ff"/>
      <path id="Path_30" data-name="Path 30" d="M834.38,764.711V770.4a12.5,12.5,0,0,1-.852,4.562,12.818,12.818,0,0,1-.909,1.873,12.587,12.587,0,0,1-10.819,6.145H403.507a12.587,12.587,0,0,1-10.819-6.145,12.809,12.809,0,0,1-.909-1.873,12.5,12.5,0,0,1-.852-4.562v-5.686a12.577,12.577,0,0,1,12.58-12.58h24.111V749.48a.524.524,0,0,1,.524-.525h12.58a.524.524,0,0,1,.525.525v2.651h7.859V749.48a.524.524,0,0,1,.525-.525h12.58a.524.524,0,0,1,.525.525v2.651H470.6V749.48a.524.524,0,0,1,.525-.525h12.58a.524.524,0,0,1,.525.525v2.651h7.859V749.48a.524.524,0,0,1,.525-.525H505.2a.524.524,0,0,1,.525.525v2.651h7.859V749.48a.524.524,0,0,1,.525-.525h12.58a.524.524,0,0,1,.525.525v2.651h7.868V749.48a.524.524,0,0,1,.525-.525h12.58a.524.524,0,0,1,.525.525v2.651h7.859V749.48a.524.524,0,0,1,.525-.525h98.543a.524.524,0,0,1,.525.525v2.651h7.868V749.48a.524.524,0,0,1,.525-.525h12.58a.53.53,0,0,1,.525.525v2.651h7.859V749.48a.524.524,0,0,1,.525-.525h12.58a.523.523,0,0,1,.525.525v2.651H707V749.48a.524.524,0,0,1,.525-.525h12.58a.523.523,0,0,1,.525.525v2.651H728.5V749.48a.523.523,0,0,1,.525-.525h12.58a.522.522,0,0,1,.515.525v2.651h7.868V749.48a.524.524,0,0,1,.525-.525H763.1a.524.524,0,0,1,.525.525v2.651h7.859V749.48a.524.524,0,0,1,.525-.525h12.58a.524.524,0,0,1,.525.525v2.651H821.8a12.577,12.577,0,0,1,12.58,12.58Z" transform="translate(-226.739 -146.113)" fill="#3f3d56"/>
      <path id="Path_31" data-name="Path 31" d="M801.785,509.928H645.874v-3.213h-70.7v3.213H418.625a10.546,10.546,0,0,0-10.546,10.546v213.49a10.546,10.546,0,0,0,10.546,10.546h383.16a10.546,10.546,0,0,0,10.546-10.546V520.474a10.546,10.546,0,0,0-10.547-10.547Z" transform="translate(-227.824 -130.784)" fill="#3f3d56"/>
      <circle id="Ellipse_6" data-name="Ellipse 6" cx="23.418" cy="23.418" r="23.418" transform="translate(359.269 430.26)" fill="none" stroke="#d0cde1" stroke-miterlimit="10" stroke-width="2"/>
      <circle id="Ellipse_7" data-name="Ellipse 7" cx="23.418" cy="23.418" r="23.418" transform="translate(351.775 438.691)" fill="#d0cde1"/>
    </g>
  </g>
</svg>
