<svg xmlns="http://www.w3.org/2000/svg" xmlns:xlink="http://www.w3.org/1999/xlink" width="1920" height="1080" viewBox="0 0 1920 1080">
  <defs>
    <linearGradient id="linear-gradient" y1="0.534" x2="1.228" y2="0.518" gradientUnits="objectBoundingBox">
      <stop offset="0" stop-color="#fff"/>
      <stop offset="1" stop-color="#efe2ff"/>
    </linearGradient>
    <linearGradient id="linear-gradient-2" x1="0.5" y1="1" x2="0.5" gradientUnits="objectBoundingBox">
      <stop offset="0" stop-color="gray" stop-opacity="0.251"/>
      <stop offset="0.54" stop-color="gray" stop-opacity="0.122"/>
      <stop offset="1" stop-color="gray" stop-opacity="0.102"/>
    </linearGradient>
    <clipPath id="clip-bg">
      <rect width="1920" height="1080"/>
    </clipPath>
  </defs>
  <g id="bg" clip-path="url(#clip-bg)">
    <rect width="1920" height="1080" fill="#fff"/>
    <g id="Group_6" data-name="Group 6">
      <rect id="Rectangle_2" data-name="Rectangle 2" width="1920" height="1080" fill="url(#linear-gradient)"/>
      <g id="Group_5" data-name="Group 5" transform="translate(1224.605 45.153)">
        <path id="Path_3" data-name="Path 3" d="M667.34,908.835c-1.328-4.806-2.655-9.665-5.311-13.847a48.5,48.5,0,0,0-8.7-9.519c-9.626-8.736-21.442-17.6-34.2-15.4a45.658,45.658,0,0,0-11.338,4.142c-1.859.863-3.731,1.726-5.643,2.456a28.107,28.107,0,0,1-17.021,1.487c-2.921-.783-5.643-2.191-8.524-3.067a27.012,27.012,0,0,0-4.182-.9,71.237,71.237,0,0,0,8.085-4.262c14.312-8.763,25.73-24.6,24.137-41.543-.544-5.7-2.5-11.152-4.434-16.529l-5.1-14.1c-2.2-6.107-4.488-12.334-8.51-17.406-4.474-5.656-10.847-9.493-17.432-12.347-14.14-6.147-29.594-8.311-44.848-10.409l-1.062-.146v-164.8a10.621,10.621,0,0,0-10.621-10.621H492.594q-1.328-8.125-2.655-16.224c-2.523-15.414-5.138-31.107-12.241-44.981-4.647-9.081-12.042-17.751-22.013-19.53a21.348,21.348,0,0,1-5.722-1.328c-2.921-1.434-4.514-4.62-6.758-6.97-5.789-6.067-15.2-6.16-22.955-9.294-6.851-2.722-12.453-7.846-18.693-11.79s-13.994-6.745-20.9-4.182a14.007,14.007,0,0,1-.146,1.5l-4.434-2.045c-4.78-2.217-9.652-4.487-13.489-8.125-4.926-4.647-7.554-10.807-9.6-17.353-.212-.677-.412-1.328-.624-2.058a61.643,61.643,0,0,0,16.516-31.532l1.075,3.492a23.181,23.181,0,0,0,.85,2.31,9.108,9.108,0,0,0,2.655,3.757,4.716,4.716,0,0,0,1.115.65,4.649,4.649,0,0,0,1.142.292,4.248,4.248,0,0,0,1.646-.12,6.28,6.28,0,0,0,3.983-3.691,7.963,7.963,0,0,0,.465-1.62,8.367,8.367,0,0,0,.093-1.009V410.79a2.591,2.591,0,0,0-.066-.664v-.345a3.865,3.865,0,0,0-.133-.783c-.053-.252,0-.146,0-.212-.066-.332-.146-.677-.212-1.009v-.252c0-.08-.119-.544-.186-.823s-.093-.358-.133-.544v-.08h0c-.133-.531-.252-1.049-.372-1.58a45.644,45.644,0,0,1-.73-14.02,150.123,150.123,0,0,1,3.8-20.38l.279-1.208c.106-.465.212-.929.305-1.407.212-.956.425-1.912.624-2.881h0l.478-2.443.358-2.177V359.7a62.945,62.945,0,0,0,.465-14.91h0c-.611-6.944-2.762-13.516-7.475-18.747-3.332-3.7-7.727-6.439-10.82-10.329-2.894-3.638-4.527-8.125-7.528-11.7-8.285-9.891-29.554-17.512-42.6-18.84-14.949-1.514-39.1,2.31-51.155,11.139-4.461,3.253-7.515,7.966-10.621,12.427-5.709,8.3-12.188,16.582-21.336,21.243-3.452,1.753-7.408,3.08-9.705,6.134A16.583,16.583,0,0,0,222.547,343a136.363,136.363,0,0,0-2.735,26.261h0v3.319a24.2,24.2,0,0,0,2.071,9.6c.212.451.451.89.7,1.328l.159.279a52.809,52.809,0,0,1,4.249,7.236,9.586,9.586,0,0,1,.651,2.2,16.251,16.251,0,0,1-.372,5.815h0a5.113,5.113,0,0,1-.173.876l-.12.571a1.12,1.12,0,0,1-.106.584c-.106.571-.2,1.142-.279,1.7h0a11.949,11.949,0,0,0,.292,4.594,6.041,6.041,0,0,0,2.947,3.983,8.63,8.63,0,0,0,2.39.744c.836.146,1.686.239,2.509.425a12.389,12.389,0,0,1,3.04,1.129,12.241,12.241,0,0,1,2.562,1.646,14.609,14.609,0,0,1,1.1,1.115,18.585,18.585,0,0,1,1.885,2.576q.425.7.8,1.434a32.757,32.757,0,0,1,2.27,6c.345,1.235.637,2.483.889,3.731.119.558.226,1.115.319,1.66s.186,1.1.266,1.646h0a3.864,3.864,0,0,0,1.062-.213c1.952-.7,3.04-2.974,3.651-5.178.106-.372.2-.73.279-1.089.305-1.328.624-2.788.929-4.182a61.564,61.564,0,0,0,24.23,26.686c.372,1.1.73,2.191,1.049,3.306,1.739,6.014,2.576,12.307-.438,17.565-2.151,3.731-5.762,6.028-9.8,7.621a6.479,6.479,0,0,0-2.191-1.859c-3.492-1.753-7.687.372-10.621,2.987-5.311,4.806-9.639,11.7-16.622,13.277-2.523.584-5.311.465-7.408,2a17.259,17.259,0,0,0-3.439,4.514,15.826,15.826,0,0,1-13.582,6.771c-2.43-.12-5.311-.677-6.97,1.1-1.235,1.328-1.328,3.425-2.655,4.687-1.779,1.753-4.7.9-7.183.8-4.726-.2-9.121,2.854-11.816,6.771s-3.983,8.6-5.311,13.277v.08a9.505,9.505,0,0,0-.969.81,14.007,14.007,0,0,0-2.934,4.753,226.856,226.856,0,0,0-18.72,77.243,7.966,7.966,0,0,1-.85,3.744,18.422,18.422,0,0,1-1.952,2.124,7.448,7.448,0,0,0,1.235,10.621,8.361,8.361,0,0,1,1.421-1.885c-.146.611-.279,1.208-.372,1.753a47.118,47.118,0,0,0-.146,11.683q1.885,27.669,3.81,55.3c.358,5.218.717,10.422,1.195,15.627q1.394,15.109,3.983,30.1a12.976,12.976,0,0,0,.292,1.328c-10.82,3.439-20.446,9.652-24.5,20.021-1.407,3.585-2.045,7.488-3.771,10.927-1.9,3.771-5.019,6.784-7.09,10.475-3.571,6.346-3.731,14.126-2.43,21.243,2.509,13.874,10.011,26.274,19.915,36.365h-1.328a20.765,20.765,0,0,0-9.068,3.253c-20.951,12.241-32.926,38.5-28.558,62.48.863,4.687,2.363,9.44,5.5,13.011a20.593,20.593,0,0,0,9.665,5.921,33.582,33.582,0,0,0,7.13,1.328c16.33,1.328,32.143-6.24,48.513-6.877a130.093,130.093,0,0,1,16.237.757q11.829.983,23.7,1.248c12.865.305,20.1-3.12,28.306-12.732a34.653,34.653,0,0,0,5.005-7.886c6.983-.4,14.7-1.009,20.273-1.46l.08.77c.305,2.655.77,5.709,2.894,7.382a10.1,10.1,0,0,0,3.983,1.633c13.409,3.293,26.978,6.638,40.786,6.638a172.208,172.208,0,0,0,19.371-1.487l24.256-2.8a120.828,120.828,0,0,1,20.844,4.541c7.01,2.376,13.555,5.908,20.406,8.709,15.932,6.452,33.059,8.763,50.026,11.02,2.894.385,6.213.651,8.351-1.328,2.762-2.655,1.845-7.09,1.062-10.807-.319-1.527-.558-3.054-.743-4.594a232.678,232.678,0,0,1,33.51,11.63l1.9.836c.558,2.894,3.226,5.2,5.789,8.324a21.231,21.231,0,0,0,2.934,3.638,9.786,9.786,0,0,0,4.209,1.514,196.258,196.258,0,0,0,54.341,2.456,55.593,55.593,0,0,1,11.206-.385,48.56,48.56,0,0,1,8.1,1.819l15.361,4.408c11.325,3.24,22.915,6.519,34.665,5.789a44.356,44.356,0,0,0,7.076-1.022c9.294-2.151,17.95-7.342,22.411-15.693C673.647,935.282,670.739,921.315,667.34,908.835Z" transform="translate(-80.89 -103.35)" fill="url(#linear-gradient-2)"/>
        <path id="Path_4" data-name="Path 4" d="M206.859,760.969c-2.8-6.373-5.457-13.7-2.655-20.074a17.061,17.061,0,0,1,8.829-8.3,42.487,42.487,0,0,1,11.949-2.947,166.762,166.762,0,0,1,38.847-.531c.943,7.462-1.049,15.029-2.762,22.238-1.553,6.638-2.443,7.621-9.294,7.966C247.34,759.562,207.908,763.319,206.859,760.969Z" transform="translate(-50.186 41.927)" fill="#fbbebe"/>
        <ellipse id="Ellipse_1" data-name="Ellipse 1" cx="189.856" cy="53.106" rx="189.856" ry="53.106" transform="translate(85.046 653.694)" fill="#464353"/>
        <ellipse id="Ellipse_2" data-name="Ellipse 2" cx="189.856" cy="53.106" rx="189.856" ry="53.106" transform="translate(85.046 653.694)" opacity="0.1"/>
        <path id="Path_5" data-name="Path 5" d="M352.428,496.038a59.068,59.068,0,0,1-30.457,27.668A76.446,76.446,0,0,1,297.8,528.3c-9.015.411-18.216-.173-26.686-3.253-11.365-4.116-20.8-12.533-27.881-22.345s-11.949-21.017-16.184-32.315c-2.23-5.882-4.355-12.148-3.306-18.362,6.837-1.553,14.325-3.837,17.857-9.9,3.014-5.2,2.177-11.444.438-17.392-.491-1.686-1.062-3.359-1.633-4.965-1.328-3.85-5.908-11.166-2.655-14.458,2.031-2.084,10.542-3.147,13.476-4.5,9.041-4.169,17.379-10.2,27.31-12.175,8.59-1.713,17.459-.106,26.035,1.673a8.564,8.564,0,0,1,3.213,1.155,7.728,7.728,0,0,1,2.39,3.585c2.443,5.948,3.877,12.52,5.842,18.72,2.045,6.492,4.673,12.586,9.6,17.193,3.837,3.6,8.723,5.855,13.5,8.046l11.763,5.39a15.466,15.466,0,0,1,5.563,3.6,14.086,14.086,0,0,1,2.655,7.222,67.472,67.472,0,0,1-6.665,40.826Z" transform="translate(-43.486 -69.587)" fill="#fbbebe"/>
        <path id="Path_6" data-name="Path 6" d="M312.712,413.763A61.072,61.072,0,0,1,238.8,424.729c-.491-1.686-1.062-3.359-1.633-4.966-1.328-3.85-5.908-11.166-2.655-14.458,2.031-2.084,10.542-3.147,13.476-4.5,9.041-4.169,17.379-10.2,27.31-12.175,8.59-1.713,17.459-.106,26.035,1.673a8.563,8.563,0,0,1,3.213,1.155,7.728,7.728,0,0,1,2.39,3.585C309.313,400.991,310.747,407.563,312.712,413.763Z" transform="translate(-40.24 -69.587)" opacity="0.1"/>
        <circle id="Ellipse_3" data-name="Ellipse 3" cx="61.072" cy="61.072" r="61.072" transform="translate(167.361 238.136)" fill="#fbbebe"/>
        <path id="Path_7" data-name="Path 7" d="M477.615,554.5,472.6,524.1c-2.536-15.255-5.151-30.8-12.241-44.543-4.66-9-12.055-17.578-22.026-19.357a21.31,21.31,0,0,1-5.735-1.328c-2.921-1.407-4.514-4.567-6.758-6.9-5.789-6-15.215-6.094-22.969-9.148-6.851-2.655-12.453-7.767-18.693-11.67s-14.007-6.638-20.911-4.142c-1.115,11.883-2.3,24.031-7.342,34.851a52.151,52.151,0,0,1-78.677,19.6c-11.829-8.909-19.41-22.65-22.942-37.028-.863-3.505-1.845-7.528-5.072-9.134-3.492-1.753-7.687.372-10.621,2.947-5.311,4.766-9.652,11.591-16.636,13.2-2.523.584-5.311.465-7.408,1.992a16.86,16.86,0,0,0-3.452,4.474,15.932,15.932,0,0,1-13.582,6.718c-2.43-.12-5.311-.677-6.97,1.089-1.235,1.328-1.328,3.4-2.655,4.633-1.792,1.739-4.7.89-7.2.8-4.726-.2-9.121,2.828-11.829,6.638s-3.983,8.524-5.311,13.091c14.511,32.315,27.788,64.67,42.3,96.986a8.271,8.271,0,0,1,1.049,3.983,9.705,9.705,0,0,1-1.806,3.983c-7.116,11.431-6.891,25.81-6.107,39.246s1.739,27.629-4.262,39.671c-1.633,3.306-3.757,6.333-5.311,9.639-3.638,7.488-4.952,31.439-2.828,39.485H486.763c-5.722-15.733-3.545-47.3-2.35-64.007.836-11.683-1.328-23.354-2.257-35.037C480.124,600.957,481.558,578.32,477.615,554.5Z" transform="translate(-63.11 -57.087)" fill="#6c5884"/>
        <path id="Path_8" data-name="Path 8" d="M146.359,553.459a47,47,0,0,0-.159,11.59l3.81,54.793c.358,5.165.717,10.316,1.195,15.467.916,10,2.284,19.915,3.983,29.819a5.311,5.311,0,0,0,5.443,5.165c16.795,3.558,34.147,3.412,51.288,2.443,26.155-1.46,52.27-4.793,78.465-4.222,6.745.146,14.6,0,18.693-5.311s1.713-13.9-3.625-18.189-12.586-5.311-19.437-5.311c-9.068-.093-18.136,1.195-27.177.664-8.3-.491-16.41-2.5-24.456-4.5l-22.57-5.616c.863-6.837,3.465-13.277,5.935-19.769,4.434-11.511,8.577-23.407,8.656-35.741s-4.567-25.305-14.671-32.368c-8.311-5.8-19.012-6.877-29.142-6.638-7.369.212-20.1-1.553-26.832,1.328C150.435,539.4,147.355,548.241,146.359,553.459Z" transform="translate(-68.894 -21.259)" fill="#fbbebe"/>
        <path id="Path_9" data-name="Path 9" d="M470.75,643.629c4.421-1.686,9.294-1.075,14.033-.438,15.255,2.084,30.735,4.222,44.875,10.316,6.638,2.841,12.958,6.638,17.445,12.228,3.983,5.032,6.306,11.192,8.51,17.26l5.1,13.967c1.938,5.311,3.9,10.728,4.448,16.37,1.593,16.715-9.838,32.475-24.217,41.157s-31.306,11.776-47.8,15.016-33.045,6.824-49.469,10.621a199.16,199.16,0,0,1-23.274,4.58c-17.578,1.992-35.953-.943-52.655,4.873-6.638,2.323-13.157,5.775-20.048,7.382a124.712,124.712,0,0,1-13.861,2.111l-31.612,3.611a172.443,172.443,0,0,1-19.384,1.487c-13.808,0-27.39-3.266-40.8-6.532a10.317,10.317,0,0,1-3.983-1.607c-2.124-1.673-2.589-4.633-2.894-7.315q-2.031-17.8-3.558-35.648c-.319-3.863-.558-8.046,1.553-11.3,2.655-3.983,7.833-5.231,12.56-6a327.768,327.768,0,0,1,60.648-4.209c7.714-7.714,20.433-7.754,30.536-11.949a90.813,90.813,0,0,0,10.767-5.855,140.732,140.732,0,0,1,59.121-18.68,55.028,55.028,0,0,0,12.095-1.726c7.82-2.43,14.949-9.041,22.982-7.422,1-2.748,1.686-6.426,3.983-8.311,1.142-.969,2.549-1.62,3.6-2.655,2.217-2.244,2.416-5.775,2.084-8.909s-1.075-6.346-.266-9.4a12.994,12.994,0,0,1,1.474-3.279C456.73,646.5,462.744,642.966,470.75,643.629Z" transform="translate(-40.884 13.848)" fill="#464353"/>
        <path id="Path_10" data-name="Path 10" d="M470.75,643.629c4.421-1.686,9.294-1.075,14.033-.438,15.255,2.084,30.735,4.222,44.875,10.316,6.638,2.841,12.958,6.638,17.445,12.228,3.983,5.032,6.306,11.192,8.51,17.26l5.1,13.967c1.938,5.311,3.9,10.728,4.448,16.37,1.593,16.715-9.838,32.475-24.217,41.157s-31.306,11.776-47.8,15.016-33.045,6.824-49.469,10.621a199.16,199.16,0,0,1-23.274,4.58c-17.578,1.992-35.953-.943-52.655,4.873-6.638,2.323-13.157,5.775-20.048,7.382a124.712,124.712,0,0,1-13.861,2.111l-31.612,3.611a172.443,172.443,0,0,1-19.384,1.487c-13.808,0-27.39-3.266-40.8-6.532a10.317,10.317,0,0,1-3.983-1.607c-2.124-1.673-2.589-4.633-2.894-7.315q-2.031-17.8-3.558-35.648c-.319-3.863-.558-8.046,1.553-11.3,2.655-3.983,7.833-5.231,12.56-6a327.768,327.768,0,0,1,60.648-4.209c7.714-7.714,20.433-7.754,30.536-11.949a90.813,90.813,0,0,0,10.767-5.855,140.732,140.732,0,0,1,59.121-18.68,55.028,55.028,0,0,0,12.095-1.726c7.82-2.43,14.949-9.041,22.982-7.422,1-2.748,1.686-6.426,3.983-8.311,1.142-.969,2.549-1.62,3.6-2.655,2.217-2.244,2.416-5.775,2.084-8.909s-1.075-6.346-.266-9.4a12.994,12.994,0,0,1,1.474-3.279C456.73,646.5,462.744,642.966,470.75,643.629Z" transform="translate(-40.884 13.848)" opacity="0.05"/>
        <path id="Path_11" data-name="Path 11" d="M249.666,775.791c-8.218,9.519-15.454,12.918-28.319,12.613q-11.869-.279-23.712-1.235a133.046,133.046,0,0,0-16.251-.757c-16.383.637-32.2,8.138-48.539,6.824a34.41,34.41,0,0,1-7.13-1.328,20.752,20.752,0,0,1-9.679-5.868c-3.133-3.545-4.634-8.245-5.5-12.892-4.368-23.818,7.608-49.761,28.571-61.882a20.95,20.95,0,0,1,9.081-3.226,21.521,21.521,0,0,1,9.187,2.018l.2.08a69.478,69.478,0,0,1,22.756,15.188,12.827,12.827,0,0,0,3.479,2.8,11.951,11.951,0,0,0,4.1.77l17.445,1.1a41.344,41.344,0,0,1,8.763,1.208,69.656,69.656,0,0,1,9.214,3.983c9.387,4.2,19.8,5.311,29.939,6.93a4.474,4.474,0,0,1,2.655,1.062,4.155,4.155,0,0,1,.823,1.726,33.869,33.869,0,0,1-7.09,30.881Z" transform="translate(-80.779 35.311)" fill="#3f3d56"/>
        <path id="Path_12" data-name="Path 12" d="M157.58,710.148a104.754,104.754,0,0,0-17.459,21.827,109.24,109.24,0,0,0-14.259,43.2,80.191,80.191,0,0,0-.146,16.742,20.749,20.749,0,0,1-9.679-5.868c-3.133-3.545-4.634-8.245-5.5-12.892-4.368-23.818,7.607-49.761,28.571-61.882a20.95,20.95,0,0,1,9.081-3.226,21.523,21.523,0,0,1,9.187,2.018Z" transform="translate(-80.779 35.314)" opacity="0.1"/>
        <path id="Path_13" data-name="Path 13" d="M410.3,735.126c9.758-.266,20.712-.757,27.881,5.815,6.837,6.214,7.74,16.463,8.192,25.69l.518,10.714c.159,3.266.292,6.638-1.022,9.666-2.337,5.311-8.749,7.873-14.6,7.568s-11.232-2.868-16.583-5.178a233.26,233.26,0,0,0-45.14-14.219q.757-11.112,2.522-22.119c.81-5.085.943-13.6,4.341-17.817,3.6-4.461,8.285-2.045,13.17-1.221A105.744,105.744,0,0,0,410.3,735.126Z" transform="translate(4.378 43.368)" fill="#fbbebe"/>
        <path id="Path_14" data-name="Path 14" d="M232.825,660.659c0,1.328-2.084,0-2.27-1.421-1.46-10.741-9.984-19.6-19.915-23.9s-21.243-4.527-32-3.505c-16.264,1.54-34.519,7.767-40.467,22.969-1.407,3.558-2.045,7.408-3.771,10.82-1.912,3.744-5.032,6.731-7.1,10.369-3.571,6.293-3.717,14.007-2.43,21.123,3.465,18.986,16.45,35.223,32.183,46.468s34.121,17.963,52.456,24.017a909.694,909.694,0,0,0,148.7,35.515c8.178,1.235,16.436,2.376,24.27,5.005,7.01,2.35,13.569,5.868,20.419,8.63,15.932,6.4,33.072,8.683,50.053,10.927,2.894.372,6.213.637,8.351-1.328,2.762-2.562,1.845-7.023,1.062-10.7a57.554,57.554,0,0,1,6.784-40.839c2.841-4.78,6.532-9.679,6-15.215-.637-6.452-7.063-11.02-13.462-12.055s-12.9.491-19.331,1.328c-2.217.292-4.634.478-6.572-.651a13.13,13.13,0,0,1-2.576-2.284,29.115,29.115,0,0,0-33.908-4.74c-2.377,1.328-5.974-1.633-8.444-2.748l-27.921-12.639c-32.076-14.511-64.312-29.089-98.247-38.276a20.634,20.634,0,0,1-7.568-3.147c-1.686-1.328-2.894-3.133-4.448-4.607-3.386-3.2-8.1-4.474-12.161-6.745S231.9,665.212,232.825,660.659Z" transform="translate(-76.032 10.175)" fill="#464353"/>
        <path id="Path_15" data-name="Path 15" d="M571.261,802.9c-4.461,8.271-13.117,13.423-22.411,15.547a44.494,44.494,0,0,1-7.09,1.009c-11.75.73-23.354-2.523-34.678-5.736l-15.374-4.328a48.519,48.519,0,0,0-8.1-1.806,55.575,55.575,0,0,0-11.206.385,198.607,198.607,0,0,1-54.434-2.443,9.6,9.6,0,0,1-4.209-1.5,20.909,20.909,0,0,1-2.934-3.6c-4.182-5.032-8.683-7.966-3.731-14.6,2.854-3.85,8.152-5.775,10.369-10.2s.8-10.7-.518-15.268c-1.792-6.306-7.687-9.028-9.8-14.817-1.58-4.368,1.075-9.44,5.072-11.816s8.935-2.562,13.542-1.952,9.121,1.912,13.755,2.27c13.622,1.089,27.549-5.935,40.626-1.978,2.881.876,5.6,2.27,8.524,3.04a28.346,28.346,0,0,0,17.034-1.474c1.912-.717,3.784-1.58,5.643-2.43a45.443,45.443,0,0,1,11.351-4.1c12.759-2.191,24.588,6.638,34.214,15.255a48.378,48.378,0,0,1,8.7,9.426c2.655,4.142,4.063,8.962,5.311,13.715C574.434,777.78,577.342,791.615,571.261,802.9Z" transform="translate(15.973 41.446)" fill="#3f3d56"/>
        <path id="Path_16" data-name="Path 16" d="M544.984,802.919c-4.461,8.271-13.117,13.423-22.411,15.547a43.4,43.4,0,0,0,4.713-22.783c-.8-12.626-6.346-24.522-13.423-35.01a124,124,0,0,0-14.79-18.016c-4.222-4.249-9.413-7.621-13.954-11.511a45.442,45.442,0,0,1,11.352-4.1c12.759-2.191,24.588,6.638,34.214,15.255a48.378,48.378,0,0,1,8.7,9.426c2.655,4.142,4.063,8.962,5.311,13.715C548.157,777.8,551.065,791.634,544.984,802.919Z" transform="translate(42.25 41.427)" opacity="0.1"/>
        <path id="Path_17" data-name="Path 17" d="M169.468,477.7a13.742,13.742,0,0,0-2.947,4.713,222.862,222.862,0,0,0-18.72,76.5,7.648,7.648,0,0,1-.863,3.7,16.2,16.2,0,0,1-1.952,2.111,7.329,7.329,0,0,0,1.248,10.621c2.191-4.129,7.435-5.47,12.095-5.828,22.318-1.766,44.118,8.617,66.5,7.833-1.58-5.457-3.85-10.7-5.138-16.224-5.7-24.522,8.51-51.221-.2-74.84-1.739-4.726-4.647-9.373-9.227-11.444a24.574,24.574,0,0,0-5.908-1.567c-5.656-1.022-16.914-5.39-22.384-3.638-2.018.651-2.815,2.549-4.488,3.691C174.952,474.965,171.579,475.563,169.468,477.7Z" transform="translate(-69.765 -42.938)" fill="#6c5884"/>
        <rect id="Rectangle_1" data-name="Rectangle 1" width="296.068" height="188.528" rx="7.97" transform="translate(146.782 483.089)" fill="#3f3d56"/>
        <circle id="Ellipse_4" data-name="Ellipse 4" cx="7.966" cy="7.966" r="7.966" transform="translate(286.187 569.387)" fill="#fff"/>
        <path id="Path_18" data-name="Path 18" d="M239.782,301.634c-4.461,3.226-7.515,7.86-10.621,12.307-5.722,8.218-12.2,16.423-21.349,21-3.465,1.739-7.422,3.054-9.718,6.081a16.383,16.383,0,0,0-2.589,6.811,134.958,134.958,0,0,0-2.735,26.022c0,4.355.186,8.842,2.111,12.8,1.819,3.717,5.1,6.864,5.775,10.913.518,3.16-.651,6.306-1.062,9.48s.305,6.93,3.24,8.444a19.636,19.636,0,0,0,4.912,1.155c8.829,1.965,11.79,12.321,13.131,20.884,3-.173,4.355-3.611,4.979-6.413l9.2-40.905c1-4.434,2.655-9.572,7.076-11.126,2.961-1.022,6.2-.066,9.294.2,12.148,1,22.424-8.391,34.307-10.98a43.81,43.81,0,0,1,11.564-.77c9.373.465,20.273,4.315,22.265,13.064.332,1.421.531,3.12,1.859,3.824s2.722.106,4.116,0c5.948-.6,9.453,6.094,11.166,11.564l6.24,19.915c.929,3.014,2.5,6.559,5.762,6.944,3.014.372,5.576-2.483,6.028-5.311s-.531-5.762-1.182-8.6c-2.934-13.077,1.553-26.46,4.288-39.564s3.226-28.16-5.948-38.25c-3.332-3.651-7.714-6.373-10.82-10.223-2.894-3.611-4.527-8.046-7.528-11.591-8.3-9.785-29.58-17.339-42.631-18.587C276,289.1,251.838,292.884,239.782,301.634Z" transform="translate(-53.542 -101.549)" fill="#3f3d56"/>
        <g id="Group_1" data-name="Group 1" transform="translate(139.241 248.08)" opacity="0.1">
          <path id="Path_19" data-name="Path 19" d="M347.085,396.824c-3.266-.4-4.833-3.983-5.762-6.944q-3.12-9.971-6.24-19.915c-1.713-5.483-5.218-12.175-11.166-11.564-1.394.146-2.894.69-4.116,0s-1.527-2.4-1.859-3.824c-1.991-8.763-12.892-12.6-22.265-13.064a44.385,44.385,0,0,0-11.564.757c-11.883,2.655-22.159,11.949-34.307,10.98-3.133-.252-6.373-1.208-9.294-.186-4.474,1.54-6.081,6.638-7.076,11.126l-9.2,40.892c-.624,2.815-1.978,6.253-4.979,6.413-1.328-8.55-4.3-18.906-13.131-20.871a20.873,20.873,0,0,1-4.912-1.155,5.762,5.762,0,0,1-2.562-2.854c-.239,1.235-.518,2.469-.677,3.7-.4,3.16.305,6.93,3.24,8.444a19.631,19.631,0,0,0,4.912,1.155c8.829,1.965,11.79,12.321,13.131,20.884,3-.173,4.355-3.611,4.979-6.413l9.2-40.905c1-4.434,2.655-9.572,7.076-11.126,2.961-1.022,6.2-.066,9.294.2,12.148,1,22.424-8.391,34.307-10.98a43.812,43.812,0,0,1,11.564-.77c9.373.465,20.273,4.315,22.265,13.064.332,1.421.531,3.12,1.859,3.824s2.722.106,4.116,0c5.948-.6,9.453,6.094,11.166,11.564q3.107,9.971,6.24,19.915c.929,3.014,2.5,6.559,5.762,6.944,3.014.372,5.576-2.483,6.028-5.311a18.03,18.03,0,0,0-.8-7.05A5.483,5.483,0,0,1,347.085,396.824Z" transform="translate(-191.111 -332.897)"/>
          <path id="Path_20" data-name="Path 20" d="M200.666,368.769c-.677-4.049-3.983-7.2-5.775-10.913a21.839,21.839,0,0,1-1.965-7.966c0,1.487-.133,2.974-.146,4.474,0,4.355.186,8.842,2.111,12.8,1.474,3.014,3.9,5.669,5.125,8.736a19.994,19.994,0,0,0,.651-7.13Z" transform="translate(-192.78 -330.121)"/>
          <path id="Path_21" data-name="Path 21" d="M318.433,345.4c-2.416,11.577-6.187,23.367-5.019,34.971.757-8.563,3.253-17.18,5.019-25.677A67.709,67.709,0,0,0,319.973,335a81.184,81.184,0,0,1-1.54,10.4Z" transform="translate(-153.325 -335)"/>
        </g>
      </g>
    </g>
  </g>
</svg>
